<svg width="20" height="20" viewBox="0 0 20 20" xmlns="http://www.w3.org/2000/svg">
<path d="M14,20c-0.5527,0-1-0.4473-1-1v-3c0-0.8008,0.3125-1.5547,0.8789-2.1211S15.1992,13,16,13h3 c0.5527,0,1,0.4473,1,1s-0.4473,1-1,1h-3c-0.2627,0-0.5205,0.1064-0.707,0.293S15,15.7373,15,16v3C15,19.5527,14.5527,20,14,20z M6,20c-0.5522,0-1-0.4473-1-1v-3c0-0.2627-0.1069-0.5205-0.293-0.707C4.5205,15.1064,4.2632,15,4,15H1c-0.5522,0-1-0.4473-1-1 s0.4478-1,1-1h3c0.8013,0,1.5547,0.3125,2.1211,0.8789C6.688,14.4453,7,15.1992,7,16v3C7,19.5527,6.5522,20,6,20z M19,7h-3 c-0.8008,0-1.5547-0.312-2.1211-0.8789C13.3125,5.5547,13,4.8013,13,4V1c0-0.5522,0.4473-1,1-1s1,0.4478,1,1v3 c0,0.2632,0.1064,0.5205,0.293,0.707C15.4795,4.8931,15.7373,5,16,5h3c0.5527,0,1,0.4478,1,1S19.5527,7,19,7z M4,7H1 C0.4478,7,0,6.5522,0,6s0.4478-1,1-1h3c0.2632,0,0.5205-0.1069,0.707-0.293C4.8931,4.5205,5,4.2632,5,4V1c0-0.5522,0.4478-1,1-1 s1,0.4478,1,1v3c0,0.8013-0.312,1.5547-0.8789,2.1211C5.5547,6.688,4.8013,7,4,7z"/>
</svg>
