<svg width="24" height="24" viewBox="0 0 24 24" xmlns="http://www.w3.org/2000/svg">
<path fill-rule="evenodd" clip-rule="evenodd" d="M16.8,24c-0.6633,0-1.2-0.5367-1.2-1.2v-3.6c0-0.9609,0.375-1.8656,1.0547-2.5453S18.2391,15.6,19.2,15.6h3.6 c0.6633,0,1.2,0.5367,1.2,1.2c0,0.6633-0.5367,1.2-1.2,1.2h-3.6c-0.3152,0-0.6246,0.1277-0.8484,0.3516S18,18.8848,18,19.2v3.6 C18,23.4633,17.4633,24,16.8,24z M7.2,24C6.5373,24,6,23.4633,6,22.8v-3.6c0-0.3152-0.1283-0.6246-0.3516-0.8484 C5.4246,18.1277,5.1158,18,4.8,18H1.2C0.5373,18,0,17.4633,0,16.8c0-0.6633,0.5373-1.2,1.2-1.2h3.6 c0.9615,0,1.8656,0.375,2.5453,1.0547C8.0256,17.3344,8.4,18.2391,8.4,19.2v3.6C8.4,23.4633,7.8627,24,7.2,24z M22.8,8.4h-3.6 c-0.9609,0-1.8656-0.3744-2.5453-1.0547C15.975,6.6656,15.6,5.7615,15.6,4.8V1.2c0-0.6627,0.5367-1.2,1.2-1.2 C17.4633,0,18,0.5373,18,1.2v3.6c0,0.3158,0.1277,0.6246,0.3516,0.8484C18.5754,5.8717,18.8848,6,19.2,6h3.6 C23.4633,6,24,6.5373,24,7.2S23.4633,8.4,22.8,8.4z M4.8,8.4H1.2C0.5373,8.4,0,7.8627,0,7.2S0.5373,6,1.2,6h3.6 c0.3158,0,0.6246-0.1283,0.8484-0.3516C5.8717,5.4246,6,5.1158,6,4.8V1.2C6,0.5373,6.5373,0,7.2,0s1.2,0.5373,1.2,1.2v3.6 c0,0.9615-0.3744,1.8656-1.0547,2.5453C6.6656,8.0256,5.7615,8.4,4.8,8.4z"/>
</svg>
