<svg width="24" height="24" viewBox="0 0 24 24" xmlns="http://www.w3.org/2000/svg">
<path fill-rule="evenodd" clip-rule="evenodd" d="M20.4,24h-3.6c-0.6633,0-1.2-0.5367-1.2-1.2c0-0.6633,0.5367-1.2,1.2-1.2h3.6 c0.3152,0,0.6246-0.1277,0.8484-0.3516C21.4723,21.0246,21.6,20.7152,21.6,20.4v-3.6c0-0.6633,0.5367-1.2,1.2-1.2 c0.6633,0,1.2,0.5367,1.2,1.2v3.6c0,0.9609-0.375,1.8656-1.0547,2.5453S21.3609,24,20.4,24z M7.2,24H3.6 c-0.9615,0-1.8656-0.375-2.5453-1.0547C0.3744,22.2656,0,21.3609,0,20.4v-3.6c0-0.6633,0.5373-1.2,1.2-1.2s1.2,0.5367,1.2,1.2v3.6 c0,0.3152,0.1283,0.6246,0.3516,0.8484C2.9754,21.4723,3.2842,21.6,3.6,21.6h3.6c0.6627,0,1.2,0.5367,1.2,1.2 C8.4,23.4633,7.8627,24,7.2,24z M22.8,8.4c-0.6633,0-1.2-0.5373-1.2-1.2V3.6c0-0.3158-0.1277-0.6246-0.3516-0.8484 C21.0246,2.5283,20.7152,2.4,20.4,2.4h-3.6c-0.6633,0-1.2-0.5373-1.2-1.2S16.1367,0,16.8,0h3.6 c0.9609,0,1.8656,0.3744,2.5453,1.0547C23.625,1.7344,24,2.6385,24,3.6v3.6C24,7.8627,23.4633,8.4,22.8,8.4z M1.2,8.4 C0.5373,8.4,0,7.8627,0,7.2V3.6c0-0.9615,0.3744-1.8656,1.0547-2.5453C1.7344,0.3744,2.6385,0,3.6,0h3.6 c0.6627,0,1.2,0.5373,1.2,1.2S7.8627,2.4,7.2,2.4H3.6c-0.3158,0-0.6246,0.1283-0.8484,0.3516C2.5283,2.9754,2.4,3.2842,2.4,3.6v3.6 C2.4,7.8627,1.8627,8.4,1.2,8.4z"/>
</svg>
