<svg width="20" height="20" viewBox="0 0 20 20" xmlns="http://www.w3.org/2000/svg">
<path d="M17,20h-3c-0.5527,0-1-0.4473-1-1s0.4473-1,1-1h3c0.2627,0,0.5205-0.1064,0.707-0.293S18,17.2627,18,17v-3 c0-0.5527,0.4473-1,1-1s1,0.4473,1,1v3c0,0.8008-0.3125,1.5547-0.8789,2.1211S17.8008,20,17,20z M6,20H3 c-0.8013,0-1.5547-0.3125-2.1211-0.8789C0.312,18.5547,0,17.8008,0,17v-3c0-0.5527,0.4478-1,1-1s1,0.4473,1,1v3 c0,0.2627,0.1069,0.5205,0.293,0.707C2.4795,17.8936,2.7368,18,3,18h3c0.5522,0,1,0.4473,1,1S6.5522,20,6,20z M19,7 c-0.5527,0-1-0.4478-1-1V3c0-0.2632-0.1064-0.5205-0.293-0.707C17.5205,2.1069,17.2627,2,17,2h-3c-0.5527,0-1-0.4478-1-1 s0.4473-1,1-1h3c0.8008,0,1.5547,0.312,2.1211,0.8789C19.6875,1.4453,20,2.1987,20,3v3C20,6.5522,19.5527,7,19,7z M1,7 C0.4478,7,0,6.5522,0,6V3c0-0.8013,0.312-1.5547,0.8789-2.1211C1.4453,0.312,2.1987,0,3,0h3c0.5522,0,1,0.4478,1,1S6.5522,2,6,2H3 C2.7368,2,2.4795,2.1069,2.293,2.293C2.1069,2.4795,2,2.7368,2,3v3C2,6.5522,1.5522,7,1,7z"/>
</svg>
