<svg viewBox="0 0 20 20" xmlns="http://www.w3.org/2000/svg" role="icon">
    <path class="st0" d="M14 20a1 1 0 01-1-1v-3c0-.8.313-1.555.879-2.121S15.199 13 16 13h3a1 1 0 110 2h-3c-.263 0-.52.106-.707.293S15 15.737 15 16v3a1 1 0 01-1 1zm-8 0a1 1 0 01-1-1v-3c0-.263-.107-.52-.293-.707A1.006 1.006 0 004 15H1a1 1 0 110-2h3a2.98 2.98 0 012.121.879A2.98 2.98 0 017 16v3a1 1 0 01-1 1zM19 7h-3a2.98 2.98 0 01-2.121-.879A2.98 2.98 0 0113 4V1a1 1 0 112 0v3c0 .263.106.52.293.707.187.186.444.293.707.293h3a1 1 0 110 2zM4 7H1a1 1 0 010-2h3c.263 0 .52-.107.707-.293C4.893 4.521 5 4.263 5 4V1a1 1 0 012 0v3c0 .801-.312 1.555-.879 2.121A2.979 2.979 0 014 7z"/>
</svg>
