<svg viewBox="0 0 24 24" xmlns="http://www.w3.org/2000/svg" role="icon">
    <path fill-rule="evenodd" clip-rule="evenodd" d="M16.8 24a1.2 1.2 0 01-1.2-1.2v-3.6c0-.96.375-1.866 1.055-2.545S18.239 15.6 19.2 15.6h3.6a1.2 1.2 0 110 2.4h-3.6c-.315 0-.625.128-.848.352S18 18.885 18 19.2v3.6a1.2 1.2 0 01-1.2 1.2zm-9.6 0A1.2 1.2 0 016 22.8v-3.6a1.21 1.21 0 00-.352-.848A1.207 1.207 0 004.8 18H1.2a1.2 1.2 0 110-2.4h3.6c.962 0 1.866.375 2.545 1.055A3.575 3.575 0 018.4 19.2v3.6A1.2 1.2 0 017.2 24zM22.8 8.4h-3.6c-.96 0-1.866-.374-2.545-1.055A3.577 3.577 0 0115.6 4.8V1.2a1.2 1.2 0 112.4 0v3.6c0 .316.128.625.352.848.223.224.533.352.848.352h3.6a1.2 1.2 0 110 2.4zm-18 0H1.2a1.2 1.2 0 010-2.4h3.6c.316 0 .625-.128.848-.352A1.21 1.21 0 006 4.8V1.2a1.2 1.2 0 012.4 0v3.6c0 .962-.374 1.866-1.055 2.545A3.574 3.574 0 014.8 8.4z"/>
</svg>
