<svg viewBox="0 0 20 20" xmlns="http://www.w3.org/2000/svg" role="icon">
    <path d="M17 20h-3a1 1 0 110-2h3c.263 0 .52-.106.707-.293S18 17.263 18 17v-3a1 1 0 112 0v3c0 .8-.313 1.555-.879 2.121S17.801 20 17 20zM6 20H3a2.98 2.98 0 01-2.121-.879A2.98 2.98 0 010 17v-3a1 1 0 112 0v3c0 .263.107.52.293.707.186.187.444.293.707.293h3a1 1 0 110 2zM19 7a1 1 0 01-1-1V3c0-.263-.106-.52-.293-.707A1.009 1.009 0 0017 2h-3a1 1 0 110-2h3c.8 0 1.555.312 2.121.879A2.98 2.98 0 0120 3v3a1 1 0 01-1 1zM1 7a1 1 0 01-1-1V3C0 2.199.312 1.445.879.879A2.979 2.979 0 013 0h3a1 1 0 010 2H3c-.263 0-.52.107-.707.293A1.008 1.008 0 002 3v3a1 1 0 01-1 1z"/>
</svg>
