<svg viewBox="0 0 24 24" xmlns="http://www.w3.org/2000/svg" role="icon">
    <path fill-rule="evenodd" clip-rule="evenodd" d="M20.4 24h-3.6a1.2 1.2 0 110-2.4h3.6c.315 0 .625-.128.848-.352.224-.223.352-.533.352-.848v-3.6a1.2 1.2 0 112.4 0v3.6c0 .96-.375 1.866-1.055 2.545S21.361 24 20.4 24zM7.2 24H3.6a3.577 3.577 0 01-2.545-1.055A3.575 3.575 0 010 20.4v-3.6a1.2 1.2 0 112.4 0v3.6c0 .315.128.625.352.848.223.224.532.352.848.352h3.6a1.2 1.2 0 110 2.4zM22.8 8.4a1.2 1.2 0 01-1.2-1.2V3.6c0-.316-.128-.625-.352-.848A1.21 1.21 0 0020.4 2.4h-3.6a1.2 1.2 0 110-2.4h3.6c.96 0 1.866.374 2.545 1.055A3.577 3.577 0 0124 3.6v3.6a1.2 1.2 0 01-1.2 1.2zm-21.6 0A1.2 1.2 0 010 7.2V3.6c0-.962.374-1.866 1.055-2.545A3.574 3.574 0 013.6 0h3.6a1.2 1.2 0 010 2.4H3.6a1.21 1.21 0 00-.848.352A1.21 1.21 0 002.4 3.6v3.6a1.2 1.2 0 01-1.2 1.2z"/>
</svg>
